<?xml version="1.0" encoding="UTF-8" standalone="no"?>
<!-- Created with Inkscape (http://www.inkscape.org/) -->

<svg
   xmlns:dc="http://purl.org/dc/elements/1.1/"
   xmlns:cc="http://creativecommons.org/ns#"
   xmlns:rdf="http://www.w3.org/1999/02/22-rdf-syntax-ns#"
   xmlns:svg="http://www.w3.org/2000/svg"
   xmlns="http://www.w3.org/2000/svg"
   xmlns:xlink="http://www.w3.org/1999/xlink"
   xmlns:sodipodi="http://sodipodi.sourceforge.net/DTD/sodipodi-0.dtd"
   xmlns:inkscape="http://www.inkscape.org/namespaces/inkscape"
   width="250mm"
   height="250mm"
   viewBox="0 0 250 250"
   version="1.1"
   id="svg8"
   inkscape:version="0.92.1 r15371"
   sodipodi:docname="Trains.svg">
  <defs
     id="defs2" />
  <sodipodi:namedview
     id="base"
     pagecolor="#ffffff"
     bordercolor="#666666"
     borderopacity="1.0"
     inkscape:pageopacity="0.0"
     inkscape:pageshadow="2"
     inkscape:zoom="0.35"
     inkscape:cx="461.46286"
     inkscape:cy="470.03429"
     inkscape:document-units="mm"
     inkscape:current-layer="layer1"
     showgrid="false"
     inkscape:pagecheckerboard="true"
     fit-margin-top="0"
     fit-margin-left="0"
     fit-margin-right="0"
     fit-margin-bottom="0"
     inkscape:window-width="791"
     inkscape:window-height="607"
     inkscape:window-x="1103"
     inkscape:window-y="378"
     inkscape:window-maximized="0" />
  <metadata
     id="metadata5">
    <rdf:RDF>
      <cc:Work
         rdf:about="">
        <dc:format>image/svg+xml</dc:format>
        <dc:type
           rdf:resource="http://purl.org/dc/dcmitype/StillImage" />
        <dc:title></dc:title>
      </cc:Work>
    </rdf:RDF>
  </metadata>
  <g
     inkscape:label="Layer 1"
     inkscape:groupmode="layer"
     id="layer1"
     transform="translate(16.262049,-23.196573)">
    <path
       style="fill:#f18d00;stroke-width:0.14068656"
       d="m 103.39186,253.12795 c -0.30951,-0.0241 -1.54403,-0.11247 -2.74339,-0.19636 C 80.229798,251.50335 59.774711,243.45345 43.430199,230.41391 37.231464,225.4686 31.296878,219.53314 26.423567,213.40479 14.001572,197.7837 6.2474783,178.77156 4.2179229,158.95909 c -0.7014308,-6.84734 -0.7014308,-14.6777 0,-21.52504 C 7.8630185,101.85075 29.61691,70.379949 61.6783,54.3076 74.744895,47.757326 87.878882,44.226301 102.6149,43.301943 c 3.43518,-0.215481 12.21042,-0.09151 15.40836,0.217673 13.9722,1.350877 26.32129,4.922282 38.40743,11.107584 30.72846,15.725852 51.80085,45.41731 56.41047,79.48362 1.05519,7.79808 1.20933,16.97493 0.41501,24.70759 -2.48247,24.1667 -13.04887,46.34344 -30.3009,63.59548 -18.36493,18.36493 -42.11754,29.05951 -68.09745,30.66081 -2.07743,0.12805 -10.03141,0.16498 -11.46596,0.0532 z m 16.47264,-36.97272 c 0.43433,-0.10541 1.01543,-0.60462 1.29185,-1.1098 0.22914,-0.41876 0.24751,-3.51356 0.31373,-52.85055 l 0.0704,-52.40574 17.32933,-0.0703 c 17.19695,-0.0698 17.33236,-0.0726 17.72651,-0.35903 0.21844,-0.15877 0.54219,-0.57751 0.71942,-0.93052 l 0.32226,-0.64183 -0.005,-9.198911 -0.005,-9.198914 -0.31725,-0.61649 c -0.19364,-0.376317 -0.50821,-0.718873 -0.80744,-0.879291 -0.47577,-0.255119 -1.87445,-0.262801 -47.84769,-0.262801 H 61.297851 l -0.47043,0.317023 c -0.258737,0.174363 -0.600472,0.538389 -0.75941,0.808948 -0.283687,0.482913 -0.28898,0.663289 -0.28898,9.84758 v 9.355656 l 0.326067,0.56275 c 0.179337,0.30951 0.495882,0.68936 0.703433,0.84412 0.371933,0.27732 0.625523,0.28188 17.611468,0.3171 16.009196,0.0332 17.246653,0.0527 17.41069,0.27409 0.140921,0.19021 0.176141,10.77534 0.174378,52.4093 -0.0019,45.70257 0.02351,52.22069 0.205249,52.57213 0.114101,0.22065 0.404536,0.56701 0.645412,0.76969 0.408578,0.3438 0.634692,0.43605 1.320704,0.53882 0.474326,0.071 21.381468,-0.0186 21.688068,-0.093 z"
       id="path21"
       inkscape:connector-curvature="0" />
  </g>
</svg>
