<?xml version="1.0" encoding="UTF-8" standalone="no"?>
<!-- Created with Inkscape (http://www.inkscape.org/) -->

<svg
   xmlns:dc="http://purl.org/dc/elements/1.1/"
   xmlns:cc="http://creativecommons.org/ns#"
   xmlns:rdf="http://www.w3.org/1999/02/22-rdf-syntax-ns#"
   xmlns:svg="http://www.w3.org/2000/svg"
   xmlns="http://www.w3.org/2000/svg"
   xmlns:xlink="http://www.w3.org/1999/xlink"
   xmlns:sodipodi="http://sodipodi.sourceforge.net/DTD/sodipodi-0.dtd"
   xmlns:inkscape="http://www.inkscape.org/namespaces/inkscape"
   width="250mm"
   height="250mm"
   viewBox="0 0 250 250"
   version="1.1"
   id="svg8"
   inkscape:version="0.92.1 r15371"
   sodipodi:docname="Ferries.svg">
  <defs
     id="defs2" />
  <sodipodi:namedview
     id="base"
     pagecolor="#ffffff"
     bordercolor="#666666"
     borderopacity="1.0"
     inkscape:pageopacity="0.0"
     inkscape:pageshadow="2"
     inkscape:zoom="0.35"
     inkscape:cx="464.32"
     inkscape:cy="481.46287"
     inkscape:document-units="mm"
     inkscape:current-layer="layer1"
     showgrid="false"
     inkscape:pagecheckerboard="true"
     fit-margin-top="0"
     fit-margin-left="0"
     fit-margin-right="0"
     fit-margin-bottom="0"
     inkscape:window-width="755"
     inkscape:window-height="601"
     inkscape:window-x="1121"
     inkscape:window-y="391"
     inkscape:window-maximized="0" />
  <metadata
     id="metadata5">
    <rdf:RDF>
      <cc:Work
         rdf:about="">
        <dc:format>image/svg+xml</dc:format>
        <dc:type
           rdf:resource="http://purl.org/dc/dcmitype/StillImage" />
        <dc:title></dc:title>
      </cc:Work>
    </rdf:RDF>
  </metadata>
  <g
     inkscape:label="Layer 1"
     inkscape:groupmode="layer"
     id="layer1"
     transform="translate(17.018,-26.220385)">
    <path
       style="fill:#009d4c;stroke-width:0.14068656"
       d="m 102.63591,256.15176 c -0.30951,-0.0241 -1.54403,-0.11247 -2.743387,-0.19636 -8.243631,-0.57662 -17.897985,-2.56383 -25.956668,-5.34279 C 40.137574,238.95753 14.466506,210.87413 5.9218973,176.2073 3.1010616,164.76274 2.2564879,152.49133 3.4614584,140.45786 5.402688,121.07173 12.993133,102.23578 25.141446,86.658213 30.114843,80.280913 37.042528,73.353228 43.419828,68.379831 57.797363,57.16737 74.755685,49.894973 92.647166,47.269206 c 8.432884,-1.237617 17.615054,-1.437762 26.097354,-0.568849 16.61064,1.701566 32.71271,7.426334 46.63759,16.581056 25.67956,16.882668 42.61881,43.669287 46.7031,73.853217 1.05647,7.80764 1.2103,16.96546 0.41501,24.70759 -1.42264,13.84931 -5.53454,27.18542 -12.12404,39.32189 -8.08926,14.89866 -19.8821,27.84844 -33.97482,37.30788 -15.63305,10.49334 -33.32842,16.45723 -52.2995,17.62652 -2.07742,0.12805 -10.0314,0.16498 -11.46595,0.0533 z m -3.293088,-36.95515 c 0.386544,-0.20393 0.738378,-0.53505 0.934278,-0.87929 l 0.31423,-0.5522 0.002,-24.58939 c 0.002,-19.54018 0.0384,-24.60318 0.17817,-24.65658 0.0967,-0.0369 9.41897,-0.0824 20.7161,-0.1011 l 20.54023,-0.0339 0.51759,-0.32184 c 0.30636,-0.19049 0.63812,-0.57084 0.81291,-0.93191 0.29198,-0.60313 0.29488,-0.7136 0.25619,-9.73724 l -0.0391,-9.12718 -0.33012,-0.53099 c -0.68639,-1.10399 1.24369,-1.00819 -21.89836,-1.08691 l -20.68092,-0.0703 v -16.81204 -16.81205 l 22.58019,-0.0703 c 22.45038,-0.0699 22.58302,-0.072 23.07259,-0.35891 0.27083,-0.15871 0.65068,-0.57022 0.84412,-0.91446 l 0.35172,-0.6259 v -9.21497 c 0,-5.06823 -0.0475,-9.384187 -0.10547,-9.591012 -0.15103,-0.538455 -0.79029,-1.248397 -1.32548,-1.472009 -0.38375,-0.16034 -6.24449,-0.1919 -35.63544,-0.1919 H 75.272377 v 63.594841 c 0,68.20391 -0.04254,64.1211 0.674703,64.75984 0.718533,0.6399 0.761112,0.64218 12.070474,0.64871 l 10.705221,0.006 0.620047,-0.3271 z"
       id="path21"
       inkscape:connector-curvature="0" />
  </g>
</svg>
