<?xml version="1.0" encoding="UTF-8" standalone="no"?>
<!-- Created with Inkscape (http://www.inkscape.org/) -->

<svg
   xmlns:dc="http://purl.org/dc/elements/1.1/"
   xmlns:cc="http://creativecommons.org/ns#"
   xmlns:rdf="http://www.w3.org/1999/02/22-rdf-syntax-ns#"
   xmlns:svg="http://www.w3.org/2000/svg"
   xmlns="http://www.w3.org/2000/svg"
   xmlns:xlink="http://www.w3.org/1999/xlink"
   xmlns:sodipodi="http://sodipodi.sourceforge.net/DTD/sodipodi-0.dtd"
   xmlns:inkscape="http://www.inkscape.org/namespaces/inkscape"
   width="250mm"
   height="250mm"
   viewBox="0 0 250 250"
   version="1.1"
   id="svg8"
   inkscape:version="0.92.1 r15371"
   sodipodi:docname="Light Rail.svg">
  <defs
     id="defs2" />
  <sodipodi:namedview
     id="base"
     pagecolor="#ffffff"
     bordercolor="#666666"
     borderopacity="1.0"
     inkscape:pageopacity="0.0"
     inkscape:pageshadow="2"
     inkscape:zoom="0.35"
     inkscape:cx="461.46288"
     inkscape:cy="467.17716"
     inkscape:document-units="mm"
     inkscape:current-layer="layer1"
     showgrid="false"
     inkscape:pagecheckerboard="true"
     fit-margin-top="0"
     fit-margin-left="0"
     fit-margin-right="0"
     fit-margin-bottom="0"
     inkscape:window-width="738"
     inkscape:window-height="586"
     inkscape:window-x="1131"
     inkscape:window-y="402"
     inkscape:window-maximized="0" />
  <metadata
     id="metadata5">
    <rdf:RDF>
      <cc:Work
         rdf:about="">
        <dc:format>image/svg+xml</dc:format>
        <dc:type
           rdf:resource="http://purl.org/dc/dcmitype/StillImage" />
        <dc:title></dc:title>
      </cc:Work>
    </rdf:RDF>
  </metadata>
  <g
     inkscape:label="Layer 1"
     inkscape:groupmode="layer"
     id="layer1"
     transform="translate(16.262054,-22.440624)">
    <path
       style="fill:#e4012e;stroke-width:0.14068656"
       d="M 103.4622,252.37146 C 99.695952,252.11852 98.064415,251.9725 95.72444,251.67895 78.646619,249.53654 62.811614,243.43403 48.545536,233.49707 40.632106,227.98501 32.598289,220.41377 26.423562,212.64884 13.995822,197.02053 6.2484131,178.02477 4.2179179,158.20315 3.5101379,151.29383 3.5103053,143.78175 4.2183399,136.6781 6.1516995,117.28242 13.726111,98.48539 25.897334,82.878452 30.890567,76.475718 37.771612,69.599407 44.241472,64.546935 58.499097,53.412851 75.549353,46.109676 93.403112,43.489445 c 8.443268,-1.23914 17.604608,-1.438832 26.097358,-0.568849 19.82111,2.030443 38.81778,9.77822 54.44569,22.205644 4.75948,3.784777 10.69529,9.484281 14.35092,13.779636 14.66449,17.230702 23.02759,37.027944 25.11833,59.460464 0.30419,3.26375 0.42244,11.36333 0.2167,14.84243 -0.77278,13.0676 -3.62727,24.92661 -8.83838,36.71919 -7.94665,17.98302 -21.17163,33.71262 -37.63643,44.76427 -15.63279,10.49317 -33.32872,16.45724 -52.29949,17.62652 -2.06938,0.12754 -9.75213,0.16308 -11.39561,0.0527 z m 44.9388,-40.74492 c 0.34637,-0.1971 0.67552,-0.548 0.88306,-0.9414 l 0.33087,-0.62718 -0.0389,-9.43191 c -0.0377,-9.14183 -0.0476,-9.4466 -0.32032,-9.90961 -0.15475,-0.26273 -0.46011,-0.61093 -0.67856,-0.77378 l -0.3972,-0.29607 -25.7705,-0.0353 c -24.006858,-0.0329 -25.782543,-0.0516 -25.946366,-0.27309 -0.139945,-0.18919 -0.175858,-10.92376 -0.175858,-52.56483 0,-51.639711 -0.0036,-52.332902 -0.274421,-52.771094 -0.150933,-0.244212 -0.525584,-0.585184 -0.832558,-0.757714 l -0.558135,-0.313688 -11.101636,0.03767 -11.101635,0.03768 -0.496768,0.378946 c -0.273223,0.208422 -0.600642,0.597843 -0.727597,0.865381 -0.212921,0.448698 -0.230829,5.413542 -0.230829,63.996879 0,34.93074 0.04221,63.55265 0.09379,63.60422 0.05158,0.0516 17.350754,0.0928 38.442603,0.0915 l 38.34881,-0.002 0.55219,-0.31424 z"
       id="path21"
       inkscape:connector-curvature="0" />
  </g>
</svg>
