<?xml version="1.0" encoding="UTF-8" standalone="no"?>
<!-- Created with Inkscape (http://www.inkscape.org/) -->

<svg
   xmlns:dc="http://purl.org/dc/elements/1.1/"
   xmlns:cc="http://creativecommons.org/ns#"
   xmlns:rdf="http://www.w3.org/1999/02/22-rdf-syntax-ns#"
   xmlns:svg="http://www.w3.org/2000/svg"
   xmlns="http://www.w3.org/2000/svg"
   xmlns:xlink="http://www.w3.org/1999/xlink"
   xmlns:sodipodi="http://sodipodi.sourceforge.net/DTD/sodipodi-0.dtd"
   xmlns:inkscape="http://www.inkscape.org/namespaces/inkscape"
   width="250mm"
   height="250mm"
   viewBox="0 0 250 250"
   version="1.1"
   id="svg8"
   inkscape:version="0.92.1 r15371"
   sodipodi:docname="Buses.svg">
  <defs
     id="defs2" />
  <sodipodi:namedview
     id="base"
     pagecolor="#ffffff"
     bordercolor="#666666"
     borderopacity="1.0"
     inkscape:pageopacity="0.0"
     inkscape:pageshadow="2"
     inkscape:zoom="0.35"
     inkscape:cx="472.89145"
     inkscape:cy="475.74853"
     inkscape:document-units="mm"
     inkscape:current-layer="layer1"
     showgrid="false"
     inkscape:pagecheckerboard="true"
     fit-margin-top="0"
     fit-margin-left="0"
     fit-margin-right="0"
     fit-margin-bottom="0"
     inkscape:window-width="756"
     inkscape:window-height="602"
     inkscape:window-x="1125"
     inkscape:window-y="400"
     inkscape:window-maximized="0" />
  <metadata
     id="metadata5">
    <rdf:RDF>
      <cc:Work
         rdf:about="">
        <dc:format>image/svg+xml</dc:format>
        <dc:type
           rdf:resource="http://purl.org/dc/dcmitype/StillImage" />
        <dc:title></dc:title>
      </cc:Work>
    </rdf:RDF>
  </metadata>
  <g
     inkscape:label="Layer 1"
     inkscape:groupmode="layer"
     id="layer1"
     transform="translate(19.285864,-24.708466)">
    <path
       style="fill:#00a6e5;stroke-width:0.14068656"
       d="m 100.36805,254.63984 c -0.30951,-0.0241 -1.544038,-0.11247 -2.743391,-0.19636 C 84.428288,253.52042 70.586574,249.65201 58.398272,243.48068 33.902557,231.07771 14.971841,209.30329 6.2277052,183.47324 2.4230668,172.23439 0.67755328,161.56375 0.68141934,149.56778 0.68687798,132.64472 4.4982314,116.92357 12.275315,101.74511 c 10.12594,-19.762692 26.46641,-35.943366 46.37917,-45.925617 7.443971,-3.731657 14.183801,-6.226683 22.072728,-8.17113 11.434386,-2.818326 23.886437,-3.675153 35.749447,-2.459925 19.95434,2.044091 39.0935,9.892477 54.72707,22.44192 12.00934,9.64019 21.69378,21.593738 28.4962,35.172992 8.85457,17.67587 12.52321,37.68355 10.53535,57.45661 -2.21016,21.98414 -11.20277,42.41319 -26.07186,59.22903 -3.10628,3.51298 -7.92246,8.15368 -11.75716,11.3288 -3.58174,2.96568 -9.03855,6.79656 -13.16089,9.23944 -14.54587,8.61983 -30.21055,13.42763 -47.33862,14.52913 -2.00523,0.12897 -10.08861,0.16642 -11.5387,0.0535 z m 16.513,-39.02471 c 9.66141,-0.5596 17.77881,-2.9998 24.21575,-7.27955 8.04363,-5.34799 12.79225,-12.94908 14.29777,-22.88636 0.29461,-1.94465 0.41913,-8.53748 0.20527,-10.86905 -0.72617,-7.91717 -3.46308,-14.1151 -8.37377,-18.96287 -3.47787,-3.43332 -7.78723,-5.75447 -12.77671,-6.88192 -0.51257,-0.11583 -0.4887,-0.28903 0.0703,-0.51016 1.03902,-0.41099 3.81823,-1.84472 4.77598,-2.46381 5.84135,-3.77587 9.85241,-9.41865 11.58039,-16.29136 1.36597,-5.43291 1.36214,-13.75431 -0.009,-19.23516 -2.11228,-8.44423 -7.2622,-14.777683 -15.32755,-18.850058 -4.33708,-2.189887 -8.77725,-3.466383 -14.98312,-4.307465 -1.58255,-0.214483 -4.44133,-0.246255 -28.559367,-0.317408 -14.740433,-0.04349 -26.943233,-0.05586 -27.117332,-0.0275 l -0.316545,0.05157 v 64.394591 c 0,35.41702 0.04221,64.4368 0.09379,64.48838 0.15458,0.15458 49.505934,0.10555 52.223934,-0.0519 z m -26.255547,-22.3265 -0.597917,-0.0539 v -16.72412 c 0,-16.53003 0.0032,-16.72516 0.277857,-16.81232 0.52232,-0.16578 22.771987,0.0146 24.201607,0.19622 7.48293,0.95056 11.76101,3.45234 14.06391,8.22444 1.20394,2.49482 1.69132,4.95316 1.69132,8.53095 0,5.34903 -1.29975,9.10829 -4.04309,11.69378 -3.30335,3.1133 -7.98723,4.51586 -16.39256,4.90867 -2.67285,0.1249 -17.897632,0.15364 -19.201127,0.0362 z M 90.027586,123.831 v -15.55472 l 9.390827,0.001 c 10.986327,0.002 13.457387,0.15458 16.992377,1.0513 3.0319,0.76911 5.30223,1.94962 7.03926,3.66024 1.54539,1.52189 2.40549,3.04579 3.0389,5.38426 0.25284,0.93348 0.30353,1.60488 0.35821,4.74518 0.0564,3.2396 0.0322,3.81083 -0.21125,4.99578 -0.53068,2.58238 -1.5849,4.55206 -3.39227,6.33802 -2.38174,2.35352 -5.65066,3.75262 -10.70621,4.58228 -1.28001,0.21007 -2.88103,0.24967 -11.99352,0.29668 l -10.516324,0.0542 z"
       id="path21"
       inkscape:connector-curvature="0" />
  </g>
</svg>
